<?xml version="1.0" encoding="utf-8"?>
<!-- Generator: Adobe Illustrator 22.1.0, SVG Export Plug-In . SVG Version: 6.00 Build 0)  -->
<svg version="1.1" id="Layer_1" xmlns="http://www.w3.org/2000/svg" xmlns:xlink="http://www.w3.org/1999/xlink" x="0px" y="0px"
	 viewBox="0 0 18 18" style="enable-background:new 0 0 18 18;" xml:space="preserve">
<style type="text/css">
	.st0{fill:none;}
	.st1{fill:#EEEEEE;}
</style>
<g id="Bounding_Boxes">
	<g id="ui_x5F_spec_x5F_header_copy_2">
	</g>
	<path class="st0" d="M0,0h18v18H0V0z"/>
</g>
<g id="Outline">
	<g id="ui_x5F_spec_x5F_header">
	</g>
	<path class="st1" d="M3.5,2C3.6,2.9,3.8,3.8,4,4.6L2.8,5.8C2.4,4.6,2.1,3.3,2,2H3.5 M13.4,14c0.9,0.2,1.7,0.4,2.6,0.5V16
		c-1.3-0.1-2.6-0.4-3.8-0.8L13.4,14 M4.5,0H1C0.5,0,0,0.5,0,1c0,9.4,7.6,17,17,17c0.5,0,1-0.5,1-1v-3.5c0-0.6-0.5-1-1-1
		c-1.2,0-2.5-0.2-3.6-0.6c-0.1,0-0.2-0.1-0.3-0.1c-0.3,0-0.5,0.1-0.7,0.3l-2.2,2.2c-2.8-1.4-5.1-3.8-6.6-6.6l2.2-2.2
		c0.3-0.3,0.4-0.7,0.2-1C5.7,3.4,5.5,2.3,5.5,1C5.5,0.5,5.1,0,4.5,0L4.5,0z"/>
</g>
</svg>
