<?xml version="1.0" encoding="utf-8"?>
<!-- Generator: Adobe Illustrator 22.1.0, SVG Export Plug-In . SVG Version: 6.00 Build 0)  -->
<svg version="1.1" id="Layer_1" xmlns="http://www.w3.org/2000/svg" xmlns:xlink="http://www.w3.org/1999/xlink" x="0px" y="0px"
	 viewBox="0 0 20 20" style="enable-background:new 0 0 20 20;" xml:space="preserve">
<style type="text/css">
	.st0{display:none;}
	.st1{fill:none;}
	.st2{display:inline;}
	.st3{fill:#EEEEEE;}
	.st4{opacity:0.3;enable-background:new    ;}
</style>
<g id="Bounding_Boxes">
	<g id="ui_x5F_spec_x5F_header_copy_3" class="st0">
	</g>
	<path class="st1" d="M0,0h20v20H0V0z"/>
</g>
<g id="Rounded" class="st0">
	<path class="st2" d="M6,16c-1.1,0-2,0.9-2,2s0.9,2,2,2s2-0.9,2-2S7.1,16,6,16z M0,1L0,1c0,0.5,0.5,1,1,1h1l3.6,7.6L4.3,12
		c-0.7,1.3,0.2,3,1.8,3h11c0.5,0,1-0.5,1-1l0,0c0-0.6-0.5-1-1-1H6l1.1-2h7.4c0.7,0,1.4-0.4,1.7-1l3.6-6.5C20.3,2.8,19.8,2,19,2H4.2
		L3.5,0.6C3.4,0.2,3,0,2.6,0H1C0.5,0,0,0.5,0,1z M16,16c-1.1,0-2,0.9-2,2s0.9,2,2,2s2-0.9,2-2S17.1,16,16,16z"/>
	<g id="ui_x5F_spec_x5F_header_copy_5" class="st2">
	</g>
</g>
<g id="Sharp" class="st0">
	<g id="ui_x5F_spec_x5F_header_copy_4" class="st2">
	</g>
	<g class="st2">
		<path d="M16,16c-1.1,0-2,0.9-2,2s0.9,2,2,2s2-0.9,2-2S17.1,16,16,16z"/>
		<path d="M6,16c-1.1,0-2,0.9-2,2s0.9,2,2,2s2-0.9,2-2S7.1,16,6,16z"/>
		<path d="M6,13l1.1-2h7.4c0.7,0,1.4-0.4,1.7-1l4.4-8H4.2L3.3,0H0v2h2l3.6,7.6l-3,5.4H18v-2H6z"/>
	</g>
</g>
<g id="Outline">
	<g id="ui_x5F_spec_x5F_header" class="st0">
	</g>
	<g>
		<path class="st3" d="M14.6,11c0.7,0,1.4-0.4,1.7-1l3.6-6.5C20.3,2.8,19.8,2,19,2H4.2L3.3,0H0v2h2l3.6,7.6L4.3,12
			c-0.7,1.3,0.2,3,1.8,3h12v-2H6l1.1-2H14.6z M5.2,4h12.1l-2.8,5h-7L5.2,4z"/>
		<path class="st3" d="M6,16c-1.1,0-2,0.9-2,2s0.9,2,2,2s2-0.9,2-2S7.1,16,6,16z"/>
		<path class="st3" d="M16,16c-1.1,0-2,0.9-2,2s0.9,2,2,2s2-0.9,2-2S17.1,16,16,16z"/>
	</g>
</g>
<g id="Duotone" class="st0">
	<g class="st2">
		<polygon class="st4" points="14.6,9 17.3,4 5.2,4 7.5,9 		"/>
		<g>
			<path d="M14.6,11c0.7,0,1.4-0.4,1.7-1l3.6-6.5C20.3,2.8,19.8,2,19,2H4.2L3.3,0H0v2h2l3.6,7.6L4.3,12c-0.7,1.3,0.2,3,1.8,3h12v-2
				H6l1.1-2H14.6z M5.2,4h12.1l-2.8,5h-7L5.2,4z"/>
			<path d="M6,16c-1.1,0-2,0.9-2,2s0.9,2,2,2s2-0.9,2-2S7.1,16,6,16z"/>
			<path d="M16,16c-1.1,0-2,0.9-2,2s0.9,2,2,2s2-0.9,2-2S17.1,16,16,16z"/>
		</g>
	</g>
	<g id="ui_x5F_spec_x5F_header_copy_2" class="st2">
	</g>
</g>
<g id="Material" class="st0">
	<g id="ui_x5F_spec_x5F_header_copy" class="st2">
	</g>
	<path class="st2" d="M6,16c-1.1,0-2,0.9-2,2s0.9,2,2,2s2-0.9,2-2S7.1,16,6,16z M0,0v2h2l3.6,7.6L4.3,12c-0.7,1.3,0.2,3,1.8,3h12v-2
		H6l1.1-2h7.4c0.7,0,1.4-0.4,1.7-1l3.6-6.5C20.3,2.8,19.8,2,19,2H4.2L3.3,0H0z M16,16c-1.1,0-2,0.9-2,2s0.9,2,2,2s2-0.9,2-2
		S17.1,16,16,16z"/>
</g>
</svg>
