<?xml version="1.0" encoding="utf-8"?>
<!-- Generator: Adobe Illustrator 22.1.0, SVG Export Plug-In . SVG Version: 6.00 Build 0)  -->
<svg version="1.1" id="Layer_1" xmlns="http://www.w3.org/2000/svg" xmlns:xlink="http://www.w3.org/1999/xlink" x="0px" y="0px"
	 viewBox="0 0 20 20" style="enable-background:new 0 0 20 20;" xml:space="preserve">
<style type="text/css">
	.st0{fill:#2C2C2C;}
</style>
<title>SP_x2_FilteringLayerSearch_Xs_N_D</title>
<g id="Page-1">
	<g id="SP_x2_FilteringLayerSearch_Xs_N_D">
		<path id="Fill-2" class="st0" d="M0.7,16.4c0,0-1.4,1.4,0,3c1.3,1.4,2.9,0,2.9,0l4.8-4.5c0,0,2.2,0.9,3.7,0.9
			c4.4,0,7.9-3.5,7.9-7.9C20,3.6,16.5,0,12.1,0S4.2,3.5,4.2,7.9c0,1.4,0.3,2.6,0.9,3.7L0.7,16.4z M6.5,7.9c0-3.1,2.5-5.7,5.7-5.7
			c3.1,0,5.7,2.5,5.7,5.7c0,3.1-2.5,5.7-5.7,5.7C9.1,13.6,6.5,11,6.5,7.9z"/>
	</g>
</g>
</svg>
